<?xml version="1.0" encoding="UTF-8" standalone="no" ?>
<!DOCTYPE svg PUBLIC "-//W3C//DTD SVG 1.1//EN" "http://www.w3.org/Graphics/SVG/1.1/DTD/svg11.dtd">
<svg xmlns="http://www.w3.org/2000/svg" xmlns:xlink="http://www.w3.org/1999/xlink" version="1.1" width="182" height="205" viewBox="0 0 182 205" xml:space="preserve">
<desc>Created with Fabric.js 4.6.0</desc>
<defs>
</defs>
<g transform="matrix(2.09 0 0 2.09 91.29 103.35)" id="IaREvXPrY4DuxXuue4CNl"  >
<path style="stroke: none; stroke-width: 1; stroke-dasharray: none; stroke-linecap: butt; stroke-dashoffset: 0; stroke-linejoin: miter; stroke-miterlimit: 4; fill: rgb(212,17,147); fill-rule: nonzero; opacity: 1;" vector-effect="non-scaling-stroke"  transform=" translate(-44, -50)" d="M 47 1.732 L 84.301 23.268 C 86.1573593016269 24.339769541584715 87.30094554559582 26.32046091613888 87.301 28.463999999999995 L 87.301 71.536 C 87.30094554559582 73.67953908386112 86.1573593016269 75.66023045841528 84.301 76.732 L 47 98.268 C 45.14359353944898 99.33979676972449 42.856406460551014 99.33979676972449 41 98.268 L 3.699 76.732 C 1.8426406983731023 75.66023045841528 0.6990544544041817 73.67953908386112 0.6989999999999998 71.536 L 0.6989999999999998 28.464 C 0.6990544544041813 26.320460916138888 1.8426406983730999 24.33976954158472 3.698999999999997 23.268 L 41 1.732 C 42.85640646055102 0.6602032302755081 45.14359353944898 0.6602032302755088 47 1.7319999999999982 z" stroke-linecap="round" />
</g>
<g transform="matrix(1.09 0 0 1.09 91 102.5)" id="TBVTGVdygDtIRluh1-Icq"  >
<path style="stroke: none; stroke-width: 1; stroke-dasharray: none; stroke-linecap: butt; stroke-dashoffset: 0; stroke-linejoin: miter; stroke-miterlimit: 4; fill: rgb(255,255,255); fill-rule: nonzero; opacity: 1;" vector-effect="non-scaling-stroke"  transform=" translate(-49.96, -50)" d="M 47.4 94.9 L 48.3 94.9 C 54.4 94.9 59.699999999999996 91.4 62 85.7 C 64.4 80 63.1 73.8 58.8 69.4 C 57.3 67.9 56.5 65.7 56.599999999999994 63.60000000000001 C 56.8 61.400000000000006 57.8 59.400000000000006 59.599999999999994 58.10000000000001 C 60.8 57.20000000000001 62.3 56.70000000000001 63.89999999999999 56.70000000000001 C 65.99999999999999 56.70000000000001 68.1 57.60000000000001 69.6 59.10000000000001 C 72.39999999999999 61.900000000000006 76.1 63.50000000000001 80 63.50000000000001 C 84.1 63.50000000000001 88.1 61.800000000000004 90.9 58.800000000000004 C 93.7 55.900000000000006 95.10000000000001 52.00000000000001 94.9 47.900000000000006 C 94.4 36.300000000000004 89.4 25.500000000000007 81 17.500000000000007 C 72.7 9.500000000000007 61.7 5.100000000000007 50 5.100000000000007 C 38.6 5.100000000000007 27.7 9.300000000000008 19.5 17.000000000000007 C 10.4 25.4 5.3 36.8 5 49.1 C 4.8 61.400000000000006 9.4 73.1 18.2 81.80000000000001 C 26 89.60000000000001 36.4 94.30000000000001 47.4 94.9 z M 22.9 20.6 C 30.3 13.8 39.9 10 50 10 C 60.4 10 70.2 13.9 77.6 21 C 85.1 28.1 89.39999999999999 37.7 89.89999999999999 48.1 C 90.1 51.6 88.6 54 87.3 55.300000000000004 C 85.39999999999999 57.300000000000004 82.8 58.400000000000006 80 58.400000000000006 C 78.2 58.400000000000006 75.6 57.900000000000006 73.2 55.50000000000001 C 70.8 53.10000000000001 67.4 51.70000000000001 64 51.70000000000001 C 61.3 51.70000000000001 58.8 52.50000000000001 56.7 54.10000000000001 C 53.800000000000004 56.30000000000001 52 59.60000000000001 51.7 63.20000000000001 C 51.400000000000006 66.80000000000001 52.800000000000004 70.4 55.300000000000004 72.9 C 58.800000000000004 76.4 58.7 80.80000000000001 57.50000000000001 83.7 C 56.300000000000004 86.7 53.20000000000001 89.9 48.400000000000006 89.9 L 47.800000000000004 89.9 C 38 89.30000000000001 28.800000000000004 85.2 21.800000000000004 78.30000000000001 C 14 70.5 9.8 60.2 10 49.2 C 10.2 38.300000000000004 14.8 28.1 22.9 20.6 z" stroke-linecap="round" />
</g>
<g transform="matrix(1 0 0 1 105.76 77.11)" id="ycJlXcqtw_JPj-39DICmg"  >
<path style="stroke: none; stroke-width: 1; stroke-dasharray: none; stroke-linecap: butt; stroke-dashoffset: 0; stroke-linejoin: miter; stroke-miterlimit: 4; fill: rgb(255,255,255); fill-rule: nonzero; opacity: 1;" vector-effect="non-scaling-stroke"  transform=" translate(-4.5, -4.5)" d="M 0 4.5 C 0 2.01472 2.01472 0 4.5 0 C 6.9852799999999995 0 9 2.01472 9 4.5 C 9 6.9852799999999995 6.9852799999999995 9 4.5 9 C 2.01472 9 0 6.9852799999999995 0 4.5 z" stroke-linecap="round" />
</g>
<g transform="matrix(1 0 0 1 85.16 72.2)" id="krykB72Wz6wYgi8SDl8Rv"  >
<path style="stroke: none; stroke-width: 1; stroke-dasharray: none; stroke-linecap: butt; stroke-dashoffset: 0; stroke-linejoin: miter; stroke-miterlimit: 4; fill: rgb(255,255,255); fill-rule: nonzero; opacity: 1;" vector-effect="non-scaling-stroke"  transform=" translate(-5, -5)" d="M 0 5 C 0 2.23858 2.23858 0 5 0 C 7.76142 0 10 2.23858 10 5 C 10 7.76142 7.76142 10 5 10 C 2.23858 10 0 7.76142 0 5 z" stroke-linecap="round" />
</g>
<g transform="matrix(1 0 0 1 67.07 85.39)" id="w3560wPOuAn649RdMlZr6"  >
<path style="stroke: none; stroke-width: 1; stroke-dasharray: none; stroke-linecap: butt; stroke-dashoffset: 0; stroke-linejoin: miter; stroke-miterlimit: 4; fill: rgb(255,255,255); fill-rule: nonzero; opacity: 1;" vector-effect="non-scaling-stroke"  transform=" translate(-5.6, -5.6)" d="M 0 5.6 C 0 2.5072099999999997 2.50721 0 5.6 0 C 8.692789999999999 0 11.2 2.50721 11.2 5.6 C 11.2 8.692789999999999 8.692789999999999 11.2 5.6 11.2 C 2.5072099999999997 11.2 0 8.692789999999999 0 5.6 z" stroke-linecap="round" />
</g>
<g transform="matrix(1 0 0 1 120.8 92.8)" id="I3FqNiblOTC4piZJQtc5p"  >
<path style="stroke: none; stroke-width: 1; stroke-dasharray: none; stroke-linecap: butt; stroke-dashoffset: 0; stroke-linejoin: miter; stroke-miterlimit: 4; fill: rgb(255,255,255); fill-rule: nonzero; opacity: 1;" vector-effect="non-scaling-stroke"  transform=" translate(-4.5, -4.5)" d="M 0 4.5 C 0 2.01472 2.01472 0 4.5 0 C 6.9852799999999995 0 9 2.01472 9 4.5 C 9 6.9852799999999995 6.9852799999999995 9 4.5 9 C 2.01472 9 0 6.9852799999999995 0 4.5 z" stroke-linecap="round" />
</g>
<g transform="matrix(1 0 0 1 60.21 108.28)" id="8cgPMnbVj0pg1SHs3Ls4g"  >
<path style="stroke: none; stroke-width: 1; stroke-dasharray: none; stroke-linecap: butt; stroke-dashoffset: 0; stroke-linejoin: miter; stroke-miterlimit: 4; fill: rgb(255,255,255); fill-rule: nonzero; opacity: 1;" vector-effect="non-scaling-stroke"  transform=" translate(-6.1, -6.1)" d="M 0 6.1 C 0 2.73106 2.73106 0 6.1 0 C 9.46894 0 12.2 2.73106 12.2 6.1 C 12.2 9.46894 9.46894 12.2 6.1 12.2 C 2.73106 12.2 0 9.46894 0 6.1 z" stroke-linecap="round" />
</g>
<g transform="matrix(1 0 0 1 84.4 131.27)" id="1pNjVWECoUb2yhm1EKrKF"  >
<path style="stroke: none; stroke-width: 1; stroke-dasharray: none; stroke-linecap: butt; stroke-dashoffset: 0; stroke-linejoin: miter; stroke-miterlimit: 4; fill: rgb(255,255,255); fill-rule: nonzero; opacity: 1;" vector-effect="non-scaling-stroke"  transform=" translate(-6.1, -6.1)" d="M 0 6.1 C 0 2.73106 2.73106 0 6.1 0 C 9.46894 0 12.2 2.73106 12.2 6.1 C 12.2 9.46894 9.46894 12.2 6.1 12.2 C 2.73106 12.2 0 9.46894 0 6.1 z" stroke-linecap="round" />
</g>
</svg>